# xmcd CD database file
#
# Track frame offsets:
#	182
#	15400
#	28592
#	42467
#	55845
#	70695
#	84495
#	97315
#	110630
#	125985
#	139985
#	153887
#	167465
#	182015
#	195357
#	210612
#	222947
#	236057
#
# Disc length: 3339 seconds
#
# Revision: 1
# Processed by: cddbd v1.5PL3 Copyright (c) Steve Scherf et al.
# Submitted via: CDex 1.50Beta7
#
DISCID=fe0d0912
DTITLE=Duke Ellington - 1947-1952 volume 2
DYEAR=1988
DGENRE=Jazz
TTITLE0=Stomp, Look and Listen
TTITLE1=Air Conditioned Jungle
TTITLE2=Three cent Stomp
TTITLE3=Progressive Gavotte
TTITLE4=He Makes Me Believe He's Mine
TTITLE5=Take Love Easy
TTITLE6=I Can't Believe That You Are In Love With Me
TTITLE7=How High The Moon
TTITLE8=Singin' in the rain
TTITLE9=Do Nothin'till You Hear From Me
TTITLE10=Don't Get Around Much Anymore
TTITLE11=Once Upon a Dream
TTITLE12=It's Love I'm In
TTITLE13=I Could Get a Man
TTITLE14=On a Turquoise Cloud
TTITLE15=A Woman and a Man
TTITLE16=The Clothed Woman
TTITLE17=New York City Blues
EXTD=YEAR: 1988
EXTT0=
EXTT1=
EXTT2=
EXTT3=
EXTT4=
EXTT5=
EXTT6=
EXTT7=
EXTT8=
EXTT9=
EXTT10=
EXTT11=
EXTT12=
EXTT13=
EXTT14=
EXTT15=
EXTT16=
EXTT17=
PLAYORDER=
